<?xml version="1.0" encoding="UTF-8" standalone="no"?>

<svg
   version="1.1"
   id="Capa_1"
   x="0px"
   y="0px"
   viewBox="0 0 475.869 475.869"
   xml:space="preserve"
   sodipodi:docname="catellite-symbolic.svg"
   style="enable-background:new 0 0 475.869 475.869;"
   inkscape:version="1.4 (e7c3feb100, 2024-10-09)"
   xmlns:inkscape="http://www.inkscape.org/namespaces/inkscape"
   xmlns:sodipodi="http://sodipodi.sourceforge.net/DTD/sodipodi-0.dtd"
   xmlns="http://www.w3.org/2000/svg"
   xmlns:svg="http://www.w3.org/2000/svg"><defs
   id="defs17" /><sodipodi:namedview
   id="namedview17"
   pagecolor="#ffffff"
   bordercolor="#000000"
   borderopacity="0.25"
   inkscape:showpageshadow="2"
   inkscape:pageopacity="0.0"
   inkscape:pagecheckerboard="0"
   inkscape:deskcolor="#d1d1d1"
   inkscape:zoom="1.2440399"
   inkscape:cx="262.85331"
   inkscape:cy="287.77212"
   inkscape:window-width="2010"
   inkscape:window-height="1176"
   inkscape:window-x="26"
   inkscape:window-y="23"
   inkscape:window-maximized="0"
   inkscape:current-layer="Capa_1" />
















<path
   style="display:inline;fill:#000000;stroke-width:10.1359"
   d="m 220.03345,420.49647 c -17.43488,1.68314 -29.70832,-20.31712 -18.74749,-33.95985 22.57593,-6.77597 27.90155,-30.48555 36.43545,-50.95245 3.70633,-8.02425 -8.05621,-13.97234 -11.54835,-21.03045 -4.47789,-7.3584 -10.20726,6.92143 -15.2529,9.37896 -8.03401,12.56798 -29.39982,2.70881 -33.23931,-9.36429 -6.53074,-18.01658 12.95055,-32.34679 29.52631,-28.92527 12.86945,-9.72721 4.79429,-25.57037 -9.85314,-20.50828 -11.7048,-1.7723 -20.30553,0.34738 -22.06464,13.87888 -16.99995,15.89221 -43.602,8.13004 -53.60548,-11.85319 -5.38172,-18.55348 11.94736,-38.78049 31.16715,-30.65436 10.75096,6.34906 34.88303,-7.61192 29.70125,-13.7991 -25.22892,-8.81455 -49.174,-20.50401 -71.45037,-35.23 C 94.368335,176.97193 72.520969,171.45159 54.503314,182.16776 32.132383,193.33498 26.257949,223.69268 41.190839,243.30175 54.133418,253.3682 71.019791,276.2303 47.042156,284.45597 25.66732,282.8766 13.019524,257.70375 4.5181584,240.06355 -3.9207007,213.52359 3.5111435,182.30033 25.906188,164.91753 38.545669,151.54646 58.93707,145.71987 77.142074,146.15075 c 37.421676,-3.67365 63.523926,28.79542 96.762816,39.45474 14.17597,7.59071 30.29967,10.03915 46.02744,10.18348 -2.13349,-16.12057 -17.9652,-30.53523 -16.97093,-48.66317 -2.61157,-15.20055 6.24482,-42.37176 26.48148,-32.38693 15.05009,1.68224 32.24895,15.4413 46.36503,5.73347 8.03631,-4.45411 16.07264,-8.90822 24.10892,-13.36236 0.49223,-22.932784 8.71415,-55.156132 37.94992,-40.65756 22.52505,7.496881 34.82124,27.698868 49.56396,44.52654 18.85655,6.15548 30.54483,26.45401 51.96683,24.315 21.82643,8.86118 36.19096,33.10575 38.56723,56.08152 -0.34059,27.17749 -0.0485,54.46915 -1.47309,81.65409 -8.68973,16.68063 -14.70526,35.47737 -30.37811,47.2196 -23.12767,24.14338 -54.85987,40.36391 -88.08619,44.30524 -19.80639,-1.09247 -40.80476,2.6721 -59.01265,-7.32165 -10.29983,-6.04725 -17.74716,6.41905 -26.1372,10.69597 -10.13025,7.30318 -20.26048,14.60639 -30.39071,21.90959 3.70244,15.54379 -7.28031,29.19979 -22.45337,30.65815 z m 0.0108,-7.86383 c 20.84667,0.58423 13.78826,-34.78755 -6.00993,-26.23153 -11.60636,4.79985 -8.47562,28.98274 6.00993,26.23153 z m 14.32753,-27.0295 c 15.17374,-11.72934 41.06788,-21.97381 46.73845,-38.8655 -11.49538,-12.29169 -36.16978,-25.00555 -39.22564,1.04903 -0.77762,10.98626 -23.79629,34.79432 -7.51281,37.81647 z m 107.21877,-29.64548 c 18.37417,-0.44456 37.5923,-4.02911 54.04659,-11.99967 18.19402,-6.88367 32.74454,-19.36841 45.81083,-33.37201 15.54202,-14.69633 25.4081,-36.59964 25.62781,-57.92587 3.90762,-29.65789 -10.26026,-57.99701 -25.66385,-82.38841 -15.39496,-18.38394 -31.36836,-36.96052 -53.37517,-47.61666 -24.63263,-12.94287 -54.97678,-18.32866 -81.19174,-6.97491 -20.4811,7.05902 -38.20034,19.75331 -51.84804,36.57275 -19.08623,23.10558 -26.48415,53.09221 -28.39803,82.38469 -1.88,27.33318 22.33558,-6.28582 35.34359,10.72751 17.05981,10.62875 26.07032,32.62578 29.1933,51.53464 8.59845,17.28671 -15.39916,26.57414 -17.02065,35.32896 19.58263,14.28308 43.29195,22.6449 67.47525,23.72898 z m -3.91539,-45.99168 c -21.8207,3.72896 -34.40986,-22.01611 -45.27453,-37.07651 -8.96075,-12.59054 -21.59221,-36.04019 -4.40529,-47.07073 32.92476,-22.25242 68.12588,-41.76781 104.05413,-58.90959 18.19671,-6.77495 36.13481,6.09292 43.25819,22.5899 6.77944,18.81123 25.3998,40.38877 14.57779,59.73283 -11.10357,10.89121 -26.01537,17.73467 -38.48718,27.29185 -19.66446,13.50587 -41.8352,22.76572 -63.63839,32.06286 -3.27548,0.92091 -6.67701,1.44169 -10.08472,1.37939 z m -74.2597,19.01352 c 21.03016,-7.04349 7.60255,-40.65508 -0.76261,-55.23092 -5.30851,-15.73774 -37.71319,-37.79243 -39.56472,-8.80301 -2.98435,20.57939 8.09532,44.47977 24.64291,57.22681 4.12098,3.98982 9.2437,9.90976 15.68447,6.80712 z m -14.46687,-18.25439 c -15.38258,-1.47711 -26.87951,-27.82399 -16.15464,-39.56761 18.22528,-8.11031 33.85655,19.95035 26.64761,35.10581 -2.25823,3.7507 -6.25086,5.41546 -10.49297,4.4618 z m 3.6928,-7.98609 c 6.23546,-13.67649 -23.6671,-44.13519 -14.63466,-13.97141 1.45046,3.97806 15.58689,28.97727 14.63466,13.97141 z m -53.65097,18.7132 c 21.96436,-0.38872 13.97251,-34.33772 -4.38304,-28.84123 -14.50596,5.60523 -9.5842,27.98156 4.38304,28.84123 z m 83.6011,-5.36355 c 8.55152,-21.71092 -4.5151,-47.24348 -20.98094,-61.92111 -3.19666,-12.30337 -32.01168,-10.04889 -10.86935,-4.22825 19.61827,17.53558 32.39075,42.61997 29.46035,69.36494 l 0.46464,0.0922 z M 218.55706,299.998 c 12.11409,-9.58811 -11.13184,-18.55251 -6.08264,-3.8148 1.46695,1.97229 3.72928,3.23157 6.08264,3.8148 z m -63.5612,-18.87982 c 21.69019,-1.07906 17.71428,-30.87239 1.50005,-38.02062 -19.64243,-11.94989 -36.67861,17.82333 -18.88612,30.90247 5.18707,3.4391 10.8126,7.60259 17.38607,7.11815 z M 45.200256,275.29369 C 65.57353,263.43667 25.232842,248.70898 27.60544,230.92797 c -8.088697,-18.78029 2.245747,-39.46707 17.446139,-51.21593 20.303225,-15.99538 50.377747,-11.52229 70.953791,1.80858 23.65934,14.8407 48.23468,29.11569 75.67014,35.42405 12.34495,0.0801 30.32367,-17.78104 7.04938,-15.74079 -26.05505,-3.36414 -47.14221,-20.25329 -70.44586,-30.97566 -16.85717,-8.98623 -33.682234,-18.8985 -53.527681,-17.92035 -22.725192,2.07417 -48.059938,12.88743 -57.514464,35.01738 -12.2211809,19.29909 -11.0279752,44.80488 0.763719,63.96138 6.427897,7.86066 15.982344,25.0175 27.19968,24.00706 z M 194.85753,257.04851 c 13.40958,2.65343 29.4647,-0.75888 24.71209,-17.10834 0,-9.23551 0,-18.47101 0,-27.70651 -13.84108,13.58438 -46.34342,21.45318 -47.07573,40.09414 4.72733,8.51843 14.87357,3.69381 22.36364,4.72071 z m 274.32576,-56.27627 c -1.29531,-21.58218 -12.36017,-43.17594 -30.17369,-55.94271 -22.91012,-10.58076 4.99693,14.66311 10.40728,22.37981 7.97504,10.0674 11.57618,24.86398 19.76641,33.5629 z m -243.7609,-13.40887 c 8.59235,-13.93973 14.37859,-29.64293 26.27243,-41.35654 3.17151,-6.19007 19.18613,-16.31695 4.52718,-16.9137 -13.23581,-2.16173 -35.31568,-18.14474 -43.66554,-2.04799 -6.59311,20.57153 1.43386,42.97101 12.86593,60.31823 z m 147.89625,-79.28652 c -7.2437,-19.734077 -28.22883,-35.06306 -48.93823,-38.369638 -17.93977,-5.912488 -16.09508,31.321818 -13.71077,36.383638 21.05214,-1.12865 42.25504,-4.4252 62.649,1.986 z"
   id="path10" /></svg>
