<?xml version="1.0" encoding="UTF-8" standalone="no"?>

<svg
   version="1.1"
   id="Capa_1"
   x="0px"
   y="0px"
   viewBox="0 0 269.47702 298.33665"
   xml:space="preserve"
   width="269.47699"
   height="298.33664"
   sodipodi:docname="catellite-icon-symbolic.svg"
   inkscape:version="1.4 (e7c3feb100, 2024-10-09)"
   xmlns:inkscape="http://www.inkscape.org/namespaces/inkscape"
   xmlns:sodipodi="http://sodipodi.sourceforge.net/DTD/sodipodi-0.dtd"
   xmlns="http://www.w3.org/2000/svg"
   xmlns:svg="http://www.w3.org/2000/svg"><sodipodi:namedview
   id="namedview1"
   pagecolor="#ffffff"
   bordercolor="#000000"
   borderopacity="0.25"
   inkscape:showpageshadow="2"
   inkscape:pageopacity="0.0"
   inkscape:pagecheckerboard="0"
   inkscape:deskcolor="#d1d1d1"
   inkscape:zoom="5.6125488"
   inkscape:cx="134.60908"
   inkscape:cy="169.26356"
   inkscape:window-width="2304"
   inkscape:window-height="1474"
   inkscape:window-x="0"
   inkscape:window-y="0"
   inkscape:window-maximized="1"
   inkscape:current-layer="Capa_1"><inkscape:page
     x="0"
     y="0"
     width="269.47702"
     height="298.33664"
     id="page2"
     margin="0"
     bleed="0" /></sodipodi:namedview><defs
   id="defs17" />
















<g
   id="g51"
   transform="translate(-168.03364,29.68267)"
   style="display:inline;stroke:#000000;stroke-opacity:1"
   inkscape:label="catellite-icon-symbolic"><path
     id="path35"
     style="fill:#ffffff;fill-opacity:1;stroke:#000000;stroke-width:3;stroke-dasharray:none;stroke-opacity:1"
     d="m 269.68588,-12.459407 c 1.37924,-4.465542 2.76633,-9.558382 6.43067,-12.459408 3.4647,-2.742967 8.44942,-3.466621 12.86132,-3.215331 7.99964,0.455639 15.41783,4.706483 22.50732,8.440244 5.78774,3.048177 10.97775,7.156045 16.07665,11.2536583 5.24753,4.217048 10.4134,8.08715669 14.66995,13.0622814 5.01248,5.8586753 12.52364,19.4473683 12.52364,19.4473683 0,0 -14.28324,-7.319358 -44.7446,-10.859888 -16.84823,-1.958274 -27.78833,0.888071 -43.94219,3.670968 -2.3382,0.402812 0.70925,-19.9247418 3.61724,-29.339893 z M 233.1533,36.212846 c 0,0 -36.36869,-15.8856 -53.64226,-12.9347 -7.67778,1.31162 -8.56396,11.387215 -9.13905,17.63824 -1.0969,11.922924 0.68822,20.461039 3.57615,30.180999 3.39872,11.439138 17.08606,27.829227 17.08606,27.829227 0,0 7.95956,-17.61645 13.14467,-25.734015 8.4297,-13.197144 28.97443,-36.979751 28.97443,-36.979751 z M 184.47962,158.75696 c -0.85646,-21.76057 -0.18536,-31.38085 5.17637,-52.09076 4.06885,-15.716137 14.25812,-34.230154 25.31546,-48.869035 9.99317,-13.23001 19.47164,-24.741629 36.22628,-34.084099 32.70824,-18.2382646 85.09039,-10.426144 108.85693,3.36291 18.4211,10.687699 35.59822,30.472639 48.16804,49.865407 10.73817,16.566883 25.83199,47.420767 26.55839,59.410297 2.21976,13.36128 1.31882,27.14552 -1.78677,40.1913 -2.99397,12.57689 -8.24314,24.96493 -15.92045,35.36689 -10.86506,14.72104 -27.02211,27.38258 -41.18848,36.28135 -21.53037,13.52456 -46.44708,19.8927 -72.05459,18.32871 -18.8923,-1.13352 -40.73216,-7.81101 -53.62836,-14.48472 -12.8962,-6.67371 -9.54829,-6.49804 -24.32544,-20.12947 M 428.22896,115.04092 c 6.9343,-10.69814 7.5773,-27.782272 -2.70416,-44.898135 -13.48367,-19.107076 -27.72172,-24.080027 -40.41343,-23.244378 19.8772,22.132634 29.17017,39.593328 43.11759,68.142513 z M 212.0959,188.33037 c 5.44567,8.16101 6.76316,17.55138 2.94269,20.97398 -3.82047,3.4226 -11.33216,-0.41864 -16.77784,-8.57966 -5.44568,-8.16102 -6.76316,-17.55139 -2.94269,-20.97399 3.82047,-3.4226 11.33217,0.41865 16.77784,8.57967 z m 12.37119,-7.74149 c 12.70503,19.68822 15.26736,42.05776 5.72313,49.96376 -9.54422,7.90601 -27.58081,-1.64536 -40.28583,-21.33357 -12.70502,-19.68822 -15.26735,-42.05775 -5.72312,-49.96375 9.54422,-7.906 27.5808,1.64536 40.28582,21.33356 z m -22.19151,-31.75951 c -3.72746,-0.31034 -7.07303,0.40974 -9.8457,2.11914 -2.5548,1.60108 -4.57216,4.02085 -5.95312,7.14062 10.11338,-4.69845 26.23827,5.0948 37.74804,22.92579 11.28851,17.52169 14.72794,37.53827 8.11523,47.22852 2.3978,-0.21898 4.58103,-0.92198 6.49024,-2.08986 11.66007,-7.19041 10.7253,-29.85408 -2.08788,-50.62109 -9.38344,-15.20811 -22.9866,-25.74714 -34.46681,-26.70312 z"
     sodipodi:nodetypes="sssssacssscssscaccsassscsasczcccccsssssssssscccccccc"
     inkscape:label="head" /><path
     id="rect1"
     style="fill:#000000;fill-opacity:1;stroke:#000000;stroke-width:3;stroke-dasharray:none;stroke-opacity:1"
     d="m 250.91578,122.65851 55.42466,-32.041795 44.11247,-22.47707 c 13.93271,-7.09927 30.4398,-0.42853 38.09809,13.2049 l 21.12694,37.610615 c 7.65829,13.63344 4.51459,32.64988 -9.16486,40.22566 l -40.23303,23.78692 -49.65399,25.28327 c -13.93469,7.09539 -32.81705,2.33412 -41.31343,-10.79339 L 244.97036,159.847 c -8.49638,-13.1275 -7.76924,-29.67664 5.94542,-37.18849 z"
     sodipodi:nodetypes="ccsssccsscc"
     inkscape:label="screen" /></g></svg>
